<?xml version="1.0" encoding="utf-8"?>
<!-- Generator: Adobe Illustrator 15.1.0, SVG Export Plug-In . SVG Version: 6.00 Build 0)  -->
<!DOCTYPE svg PUBLIC "-//W3C//DTD SVG 1.1//EN" "http://www.w3.org/Graphics/SVG/1.1/DTD/svg11.dtd">
<svg version="1.1" id="Layer_1" xmlns="http://www.w3.org/2000/svg" xmlns:xlink="http://www.w3.org/1999/xlink" x="0px" y="0px"
	 width="121px" height="100px" viewBox="19.5 16.115 121 100" enable-background="new 19.5 16.115 121 100" xml:space="preserve">
<g>
	<g>
		<path fill="#BE1E2D" d="M140.869,77.887l-10.583-11.926l9.678-11.469h-16.585c-5.108-19.218-22.639-33.375-43.472-33.377
			c-20.833,0.002-38.352,14.159-43.475,33.377H20.042l9.671,11.469L19.142,77.887H36.47c5.175,19.138,22.659,33.229,43.436,33.229
			c20.789,0,38.274-14.091,43.445-33.229H140.869z M49.355,96.657c-7.816-7.82-12.649-18.614-12.649-30.538
			c0-11.935,4.833-22.73,12.649-30.551c7.82-7.819,18.624-12.651,30.55-12.653c11.926,0.002,22.731,4.834,30.553,12.653
			c7.822,7.82,12.656,18.616,12.656,30.551c0,11.924-4.834,22.718-12.656,30.538c-7.822,7.824-18.627,12.656-30.553,12.656
			C67.981,109.313,57.176,104.481,49.355,96.657z"/>
		<path fill="#FFFFFF" d="M123.115,66.119c0-11.935-4.834-22.73-12.656-30.551c-7.822-7.819-18.627-12.651-30.553-12.653
			c-11.928,0.002-22.73,4.834-30.55,12.653c-7.816,7.82-12.649,18.616-12.649,30.551c0,11.924,4.833,22.718,12.649,30.538
			c7.82,7.824,18.625,12.656,30.55,12.656c11.926,0,22.731-4.832,30.553-12.656C118.281,88.837,123.115,78.043,123.115,66.119z
			 M79.906,108.317c-23.302-0.002-42.198-18.891-42.198-42.2c0-23.309,18.896-42.201,42.198-42.202
			c23.308,0.001,42.202,18.893,42.202,42.202C122.107,89.427,103.214,108.315,79.906,108.317z"/>
		<path fill="#BE1E2D" d="M122.107,66.117c0-23.309-18.894-42.201-42.201-42.202c-23.303,0.001-42.199,18.893-42.199,42.202
			c0,23.31,18.896,42.198,42.199,42.2C103.214,108.315,122.107,89.427,122.107,66.117z M50.71,95.324
			c-7.475-7.479-12.1-17.81-12.1-29.207c0-11.405,4.625-21.731,12.1-29.202c7.474-7.471,17.796-12.093,29.197-12.093
			c11.401,0,21.73,4.623,29.207,12.093s12.086,17.797,12.086,29.202c0,11.398-4.609,21.729-12.086,29.207
			c-7.477,7.475-17.807,12.087-29.207,12.087C68.505,107.412,58.184,102.799,50.71,95.324z"/>
		<path fill="#BE1E2D" d="M117.975,66.117c0-21.028-17.042-38.068-38.069-38.07c-21.017,0.002-38.067,17.042-38.067,38.07
			c0,21.025,17.05,38.067,38.067,38.069C100.933,104.184,117.975,87.142,117.975,66.117z M53.569,92.453
			c-6.746-6.738-10.917-16.048-10.917-26.336c0-10.293,4.17-19.602,10.917-26.346c6.737-6.74,16.045-10.906,26.336-10.906
			c10.291,0,19.601,4.166,26.337,10.906c6.758,6.744,10.913,16.053,10.913,26.346c0,10.288-4.155,19.598-10.913,26.336
			c-6.736,6.755-16.047,10.913-26.337,10.913C69.614,103.366,60.308,99.208,53.569,92.453z"/>
	</g>
	<g>
		<path d="M88.398,49.967l-0.167-0.102l-0.174-0.044c-0.12-0.037-3.175-0.892-8.058-0.892c-4.887,0-7.929,0.855-8.059,0.892
			l-0.185,0.045l-0.167,0.101c-0.967,0.621-1.67,1.923-1.67,3.075v36.465c0,1.429,1.15,2.58,2.579,2.58h15.016
			c1.411,0,2.564-1.151,2.564-2.58V53.042C90.078,51.889,89.372,50.588,88.398,49.967L88.398,49.967z M88.789,89.507
			c0,0.581-0.391,1.063-0.925,1.216V63.44c0-0.242-0.203-0.63-0.412-0.833c-0.796-0.204-3.512-0.772-7.452-0.772
			c-3.94,0-6.658,0.568-7.454,0.772c-0.207,0.203-0.398,0.591-0.398,0.833v27.281c-0.539-0.151-0.947-0.634-0.947-1.215V53.042
			c0-0.709,0.492-1.6,1.092-1.977c0,0,2.944-0.846,7.708-0.846c4.768,0,7.694,0.846,7.694,0.846
			c0.614,0.377,1.095,1.268,1.095,1.977L88.789,89.507L88.789,89.507z"/>
		<rect x="73.831" y="40.149" width="12.347" height="7.501"/>
	</g>
</g>
</svg>
