<?xml version="1.0" encoding="utf-8"?>
<!-- Generator: Adobe Illustrator 15.1.0, SVG Export Plug-In . SVG Version: 6.00 Build 0)  -->
<!DOCTYPE svg PUBLIC "-//W3C//DTD SVG 1.1//EN" "http://www.w3.org/Graphics/SVG/1.1/DTD/svg11.dtd">
<svg version="1.1" id="Layer_1" xmlns="http://www.w3.org/2000/svg" xmlns:xlink="http://www.w3.org/1999/xlink" x="0px" y="0px"
	 width="121px" height="100px" viewBox="19.5 16.115 121 100" enable-background="new 19.5 16.115 121 100" xml:space="preserve">
<g>
	<g>
		<path fill="#BE1E2D" d="M140.86,77.888l-10.574-11.923l9.674-11.476h-16.571c-5.126-19.217-22.649-33.373-43.48-33.375
			C59.075,21.116,41.553,35.272,36.426,54.49H20.039l9.675,11.475L19.139,77.888h17.328c5.176,19.143,22.661,33.227,43.441,33.227
			c20.778,0,38.265-14.084,43.438-33.227H140.86z M49.36,96.662c-7.818-7.82-12.653-18.616-12.653-30.544
			c0-11.936,4.834-22.729,12.653-30.549c7.821-7.82,18.615-12.652,30.548-12.654c11.933,0.001,22.726,4.833,30.546,12.654
			c7.818,7.821,12.652,18.614,12.654,30.549c-0.002,11.928-4.836,22.724-12.654,30.544c-7.82,7.819-18.615,12.653-30.546,12.655
			C67.975,109.315,57.181,104.482,49.36,96.662z"/>
		<path fill="#FFFFFF" d="M123.108,66.117c-0.002-11.936-4.836-22.729-12.654-30.549c-7.82-7.82-18.615-12.652-30.546-12.654
			c-11.934,0.001-22.727,4.833-30.548,12.654c-7.818,7.821-12.653,18.614-12.653,30.549c0,11.928,4.834,22.724,12.653,30.544
			c7.821,7.819,18.617,12.653,30.548,12.655c11.933-0.002,22.726-4.835,30.546-12.655C118.272,88.842,123.106,78.047,123.108,66.117
			z M79.908,108.316c-23.306-0.003-42.2-18.895-42.2-42.2c0-23.307,18.894-42.198,42.2-42.201
			c23.304,0.002,42.198,18.894,42.198,42.201C122.106,89.422,103.212,108.313,79.908,108.316z"/>
		<path fill="#BE1E2D" d="M122.106,66.116c0-23.308-18.895-42.199-42.198-42.201c-23.306,0.001-42.2,18.893-42.2,42.201
			c0,23.305,18.894,42.196,42.2,42.199C103.212,108.313,122.106,89.422,122.106,66.116z M50.705,95.317
			c-7.474-7.476-12.096-17.796-12.096-29.201c0-11.407,4.623-21.729,12.096-29.204c7.475-7.473,17.797-12.094,29.204-12.094
			c11.403,0,21.728,4.621,29.2,12.094c7.476,7.475,12.095,17.797,12.095,29.204c0,11.406-4.619,21.725-12.095,29.201
			c-7.473,7.474-17.797,12.097-29.2,12.097C68.502,107.414,58.18,102.791,50.705,95.317z"/>
		<path fill="#BE1E2D" d="M117.973,66.116c0-21.026-17.043-38.066-38.064-38.068C58.885,28.05,41.842,45.09,41.842,66.116
			c0,21.021,17.043,38.064,38.066,38.067C100.93,104.18,117.973,87.137,117.973,66.116z M53.564,92.46
			c-6.742-6.745-10.912-16.058-10.912-26.343c0-10.291,4.169-19.602,10.912-26.344c6.743-6.743,16.054-10.912,26.344-10.912
			c10.288,0,19.602,4.169,26.342,10.912c6.743,6.742,10.911,16.053,10.911,26.344c0,10.286-4.168,19.598-10.911,26.343
			c-6.74,6.739-16.054,10.912-26.342,10.912C69.618,103.372,60.308,99.199,53.564,92.46z"/>
	</g>
	<g>
		<g>
			<defs>
				
					<rect id="SVGID_1_" x="58.515" y="45.496" transform="matrix(0.9135 -0.4068 0.4068 0.9135 -22.0532 38.7016)" width="42.973" height="51.451"/>
			</defs>
			<clipPath id="SVGID_2_">
				<use xlink:href="#SVGID_1_"  overflow="visible"/>
			</clipPath>
			<path clip-path="url(#SVGID_2_)" d="M92.494,61.564c1.993-3.264,2.403-7.424,0.727-11.192c-2.71-6.081-9.844-8.817-15.921-6.11
				c-1.177,0.524-2.223,1.217-3.137,2.03L51.412,56.423c-1.852,0.826,2.949,10.753,4.486,10.07l15.12-6.735
				c0.063,0.14,0.104,0.288,0.165,0.429c2.436,5.469,8.447,8.222,14.053,6.754l1.063,2.39l-1.271,0.563l1.06,2.381l1.27-0.565
				l0.64,1.433l-1.271,0.564l1.063,2.389l1.266-0.567l2.091,4.688c-0.413,1.164-0.413,2.495,0.133,3.714
				c1.135,2.549,4.145,3.68,6.717,2.535c0.713-0.315,1.315-0.779,1.789-1.333l4.933,3.109l0.865-1.381l-4.938-3.105
				c0.515-1.233,0.549-2.663-0.041-3.978c-0.237-0.536-0.572-1.012-0.954-1.415l0.271-0.119L92.494,61.564z M80.413,51.254
				c0.821-0.367,1.704-0.461,2.532-0.32l-4.465,1.987C78.93,52.213,79.582,51.623,80.413,51.254L80.413,51.254z M78.179,53.508
				l5.403-2.408c0.392,0.125,0.764,0.312,1.116,0.55l-6.859,3.053C77.899,54.282,78.009,53.881,78.179,53.508L78.179,53.508z
				 M77.804,55.159l7.254-3.231c0.272,0.232,0.523,0.5,0.736,0.8l-7.893,3.516C77.819,55.884,77.789,55.519,77.804,55.159
				L77.804,55.159z M83.998,59.31c-0.813,0.362-1.689,0.452-2.503,0.324l4.422-1.97C85.461,58.359,84.816,58.947,83.998,59.31
				L83.998,59.31z M86.228,57.076l-5.375,2.393c-0.373-0.123-0.741-0.296-1.065-0.511l6.771-3.016
				C86.496,56.34,86.382,56.716,86.228,57.076L86.228,57.076z M86.606,55.482l-7.193,3.205c-0.256-0.214-0.492-0.451-0.704-0.728
				l7.82-3.482C86.602,54.816,86.618,55.15,86.606,55.482L86.606,55.482z M86.439,54.078l-7.96,3.545
				c-0.112-0.171-0.211-0.354-0.3-0.555c-0.063-0.14-0.117-0.283-0.165-0.428l8.004-3.566c0.079,0.134,0.147,0.27,0.21,0.409
				C86.314,53.686,86.38,53.884,86.439,54.078L86.439,54.078z"/>
		</g>
	</g>
</g>
</svg>
