<?xml version="1.0" encoding="utf-8"?>
<!-- Generator: Adobe Illustrator 15.1.0, SVG Export Plug-In . SVG Version: 6.00 Build 0)  -->
<!DOCTYPE svg PUBLIC "-//W3C//DTD SVG 1.1//EN" "http://www.w3.org/Graphics/SVG/1.1/DTD/svg11.dtd">
<svg version="1.1" id="Layer_1" xmlns="http://www.w3.org/2000/svg" xmlns:xlink="http://www.w3.org/1999/xlink" x="0px" y="0px"
	 width="160px" height="132.23px" viewBox="0 0 160 132.23" enable-background="new 0 0 160 132.23" xml:space="preserve">
<g>
	<g>
		<path fill="#BE1E2D" d="M160,81.594l-13.9-15.676l12.718-15.084H137.03c-6.734-25.26-29.768-43.869-57.151-43.869
			S29.463,25.573,22.723,50.833H1.184L13.9,65.917L0,81.594h22.776c6.805,25.162,29.789,43.672,57.103,43.672
			c27.313,0,50.298-18.51,57.103-43.672H160z M39.726,106.269C29.447,95.988,23.093,81.799,23.093,66.118
			c0-15.687,6.354-29.875,16.633-40.156C50.004,15.683,64.193,9.332,79.879,9.329c15.686,0.002,29.875,6.354,40.151,16.632
			c10.281,10.281,16.633,24.469,16.633,40.156c0,15.681-6.352,29.87-16.633,40.151C109.754,116.547,95.564,122.9,79.879,122.9
			C64.195,122.9,50.004,116.547,39.726,106.269z"/>
		<path fill="#FFFFFF" d="M136.663,66.118c0-15.687-6.352-29.875-16.633-40.156C109.754,15.683,95.564,9.332,79.879,9.329
			c-15.686,0.002-29.875,6.354-40.153,16.632C29.447,36.242,23.093,50.431,23.093,66.118c0,15.681,6.354,29.87,16.633,40.151
			c10.278,10.277,24.47,16.631,40.153,16.631c15.686,0,29.875-6.354,40.151-16.631C130.312,95.988,136.663,81.799,136.663,66.118z
			 M79.879,121.584c-30.633,0-55.469-24.834-55.469-55.468c0-30.635,24.836-55.468,55.469-55.469
			c30.634,0.001,55.468,24.834,55.47,55.469C135.347,96.75,110.513,121.584,79.879,121.584z"/>
		<path fill="#BE1E2D" d="M135.349,66.115c-0.002-30.635-24.836-55.468-55.47-55.469C49.246,10.648,24.41,35.481,24.41,66.115
			c0,30.634,24.836,55.468,55.469,55.468C110.513,121.584,135.347,96.75,135.349,66.115z M41.492,104.502
			c-9.823-9.828-15.899-23.395-15.899-38.386c0-14.993,6.076-28.561,15.899-38.386c9.826-9.825,23.394-15.901,38.387-15.901
			s28.558,6.076,38.387,15.901c9.823,9.825,15.898,23.393,15.898,38.386c0,14.992-6.075,28.558-15.898,38.386
			c-9.829,9.824-23.394,15.898-38.387,15.898S51.318,114.326,41.492,104.502z"/>
		<path fill="#BE1E2D" d="M129.917,66.115c0-27.634-22.403-50.035-50.038-50.038C52.244,16.08,29.841,38.481,29.841,66.115
			c0,27.636,22.403,50.037,50.038,50.039C107.514,116.152,129.917,93.752,129.917,66.115z M45.251,100.744
			c-8.862-8.865-14.343-21.104-14.343-34.628c0-13.525,5.48-25.764,14.343-34.628c8.865-8.862,21.103-14.342,34.628-14.342
			c13.523,0,25.763,5.48,34.628,14.342c8.86,8.864,14.34,21.103,14.34,34.628c0,13.525-5.479,25.763-14.34,34.628
			c-8.865,8.861-21.104,14.342-34.628,14.342C66.354,115.086,54.116,109.605,45.251,100.744z"/>
	</g>
	<path d="M99.154,84.691l-6.509,5.998c-1.714,1.576-2.777,3.24-2.352,3.703c0.419,0.453,2.163-0.471,3.875-2.049l5.882-5.418
		c0.62,2.455,0.13,4.908-1.555,6.461c-2.71,2.494-4.514,5.01-3.993,5.574c0.52,0.564,3.765-1.555,7.196-4.715l7.279-6.703
		c3.423-3.154,3.645-8.555,0.484-11.986l-36.534-39.66c-3.152-3.423-8.554-3.645-11.977-0.493l-7.279,6.705
		c-3.431,3.161-5.815,6.212-5.297,6.777c0.528,0.574,3.184-1.017,5.893-3.513c1.685-1.55,4.161-1.85,6.558-1.031l-5.883,5.419
		c-1.711,1.577-2.776,3.24-2.35,3.704c0.416,0.454,2.172-0.463,3.884-2.039l6.511-5.999c0.685,0.448,1.366,0.982,1.962,1.629
		l0.53,0.574l-6.763,6.228c-1.711,1.576-2.776,3.242-2.351,3.705c0.418,0.452,2.165-0.472,3.876-2.048l6.762-6.227l2.239,2.432
		l-6.761,6.228c-1.71,1.577-2.768,3.249-2.35,3.703c0.426,0.464,2.172-0.461,3.883-2.037l6.761-6.228l2.243,2.433l-6.763,6.228
		c-1.71,1.575-2.776,3.24-2.35,3.701c0.418,0.455,2.162-0.47,3.875-2.046l6.761-6.228l2.25,2.441l-6.761,6.229
		c-1.712,1.576-2.776,3.238-2.359,3.693s2.172-0.463,3.885-2.037l6.76-6.23l2.241,2.434l-6.763,6.228
		c-1.71,1.576-2.774,3.24-2.349,3.703c0.419,0.451,2.164-0.471,3.875-2.049l6.762-6.227l2.251,2.442l-6.764,6.227
		c-1.71,1.578-2.776,3.244-2.357,3.697c0.426,0.461,2.17-0.465,3.883-2.041l6.761-6.229l2.249,2.443l-6.761,6.227
		c-1.71,1.576-2.784,3.232-2.358,3.695c0.425,0.461,2.173-0.463,3.883-2.037l6.762-6.23l2.242,2.434l-6.765,6.227
		c-1.709,1.576-2.773,3.242-2.347,3.705c0.416,0.455,2.163-0.471,3.875-2.047l6.76-6.229l2.249,2.441l-6.761,6.229
		c-1.711,1.576-2.777,3.24-2.358,3.693c0.428,0.463,2.171-0.463,3.884-2.039l6.763-6.227l0.511,0.553
		C98.29,83.25,98.758,83.965,99.154,84.691L99.154,84.691z M99.154,84.691"/>
</g>
</svg>
