<?xml version="1.0" encoding="utf-8"?>
<!-- Generator: Adobe Illustrator 15.1.0, SVG Export Plug-In . SVG Version: 6.00 Build 0)  -->
<!DOCTYPE svg PUBLIC "-//W3C//DTD SVG 1.1//EN" "http://www.w3.org/Graphics/SVG/1.1/DTD/svg11.dtd">
<svg version="1.1" id="Layer_1" xmlns="http://www.w3.org/2000/svg" xmlns:xlink="http://www.w3.org/1999/xlink" x="0px" y="0px"
	 width="121px" height="100px" viewBox="19.5 16.115 121 100" enable-background="new 19.5 16.115 121 100" xml:space="preserve">
<g>
	<g>
		<path fill="#BE1E2D" d="M140.859,77.887l-10.574-11.923l9.674-11.477h-16.57c-5.127-19.215-22.649-33.371-43.48-33.373
			c-20.832,0.002-38.354,14.158-43.481,33.373H20.042l9.674,11.477L19.141,77.887h17.326c5.177,19.144,22.661,33.228,43.441,33.228
			c20.779,0,38.264-14.084,43.438-33.228H140.859z M49.36,96.665c-7.817-7.823-12.65-18.617-12.65-30.549
			c0-11.933,4.833-22.727,12.65-30.548c7.821-7.818,18.613-12.65,30.548-12.652c11.933,0.002,22.724,4.834,30.545,12.652
			c7.818,7.821,12.652,18.616,12.655,30.548c-0.003,11.932-4.837,22.725-12.655,30.548c-7.821,7.815-18.612,12.65-30.545,12.652
			C67.979,109.314,57.182,104.479,49.36,96.665z"/>
		<path fill="#FFFFFF" d="M123.108,66.116c-0.003-11.933-4.837-22.727-12.655-30.548c-7.821-7.818-18.612-12.65-30.545-12.652
			C67.974,22.918,57.182,27.75,49.36,35.568c-7.817,7.821-12.65,18.616-12.65,30.548s4.833,22.725,12.65,30.548
			c7.821,7.814,18.618,12.649,30.548,12.651c11.933-0.002,22.724-4.836,30.545-12.651C118.271,88.842,123.105,78.048,123.108,66.116
			z M79.908,108.313C56.604,108.311,37.71,89.42,37.71,66.115c0-23.306,18.894-42.195,42.198-42.199
			c23.304,0.004,42.197,18.894,42.197,42.199C122.105,89.42,103.212,108.311,79.908,108.313z"/>
		<path fill="#BE1E2D" d="M122.105,66.115c0-23.306-18.894-42.195-42.196-42.199C56.604,23.921,37.71,42.81,37.71,66.115
			s18.894,42.196,42.199,42.198C103.212,108.311,122.105,89.42,122.105,66.115z M50.707,95.317
			C43.233,87.843,38.61,77.519,38.61,66.115c0-11.405,4.623-21.728,12.097-29.201s17.796-12.096,29.202-12.096
			c11.404,0,21.725,4.622,29.201,12.096c7.475,7.474,12.095,17.796,12.095,29.201c0,11.404-4.62,21.728-12.095,29.202
			c-7.477,7.474-17.797,12.095-29.201,12.095C68.503,107.413,58.181,102.791,50.707,95.317z"/>
		<path fill="#BE1E2D" d="M117.974,66.115c-0.002-21.022-17.043-38.064-38.065-38.064c-21.023,0-38.066,17.042-38.066,38.064
			c0,21.021,17.043,38.064,38.066,38.066C100.931,104.18,117.972,87.136,117.974,66.115z M53.564,92.458
			c-6.741-6.744-10.911-16.054-10.911-26.343s4.169-19.6,10.911-26.344c6.745-6.74,16.054-10.909,26.344-10.909
			c10.289,0,19.6,4.168,26.343,10.909c6.741,6.744,10.909,16.055,10.909,26.344s-4.168,19.599-10.909,26.343
			c-6.743,6.743-16.056,10.91-26.343,10.91C69.618,103.368,60.311,99.201,53.564,92.458z"/>
	</g>
	<g>
		<path d="M99.699,41.258L81.507,60.965c-3.762,4.074-8.641,4.53-8.641,4.53c-4.407,1.091-8.207,0.549-8.361,0.526
			c-2.334-0.628-5.074,0.067-7.071,2.038c-2.866,2.816-3.152,7.202-0.626,9.755c2.515,2.555,6.896,2.348,9.756-0.473
			c0.017-0.015,0.022-0.021,0.03-0.03c-0.008,0.024-0.008,0.047-0.008,0.047l13.916-12.801c0.068,0.077,0.146,0.155,0.225,0.226
			l-4.236,4.298l0.572,0.564l0.249-0.256l-9.238,9.788c-0.095,0.085-0.194,0.161-0.279,0.256c-2.864,2.817-3.148,7.192-0.635,9.75
			c2.524,2.561,6.897,2.345,9.765-0.473c2.045-2.014,2.764-4.818,2.105-7.187c-0.061-0.487-0.703-6.388,2.093-11.918l2.214-2.244
			c0.356-1.43,1.463-3.288,1.471-3.295c4.713-6.813,14.629-21.472,14.629-21.472L99.699,41.258z M65.084,75.833
			c-2.036,2.006-5.081,2.231-6.783,0.503c-1.696-1.734-1.426-4.77,0.612-6.775c2.027-2.006,5.071-2.23,6.774-0.495
			C67.392,70.794,67.119,73.837,65.084,75.833z M75.444,87.208c-2.036,2.007-5.081,2.231-6.775,0.503
			c-1.703-1.732-1.433-4.77,0.604-6.773c2.037-2.007,5.072-2.232,6.775-0.497C77.751,82.168,77.483,85.201,75.444,87.208z
			 M84.599,62.675c-0.436,0.427-1.138,0.427-1.573-0.014c-0.424-0.435-0.424-1.139,0.016-1.57c0.435-0.427,1.141-0.427,1.571,0.014
			C85.044,61.537,85.038,62.242,84.599,62.675z"/>
		<path d="M87.563,61.546l17.354-15.936l-1.394,0.316c0,0-4.638,3.152-9.903,6.736C91.574,55.668,89.394,58.874,87.563,61.546
			L87.563,61.546z"/>
	</g>
</g>
</svg>
