<?xml version="1.0" encoding="utf-8"?>
<!-- Generator: Adobe Illustrator 15.1.0, SVG Export Plug-In . SVG Version: 6.00 Build 0)  -->
<!DOCTYPE svg PUBLIC "-//W3C//DTD SVG 1.1//EN" "http://www.w3.org/Graphics/SVG/1.1/DTD/svg11.dtd">
<svg version="1.1" id="Layer_1" xmlns="http://www.w3.org/2000/svg" xmlns:xlink="http://www.w3.org/1999/xlink" x="0px" y="0px"
	 width="160px" height="132.23px" viewBox="0 0 160 132.23" enable-background="new 0 0 160 132.23" xml:space="preserve">
<g>
	<g>
		<path fill="#BE1E2D" d="M160,81.592L146.1,65.92l12.719-15.086h-21.789c-6.734-25.259-29.768-43.867-57.153-43.869
			c-27.382,0.002-50.414,18.61-57.154,43.869H1.182L13.9,65.92L0,81.592h22.776c6.803,25.164,29.788,43.674,57.101,43.674
			c27.313,0,50.301-18.51,57.102-43.674H160z M39.725,106.27C29.449,95.989,23.092,81.799,23.092,66.119
			c0-15.688,6.356-29.875,16.633-40.156C50.003,15.684,64.193,9.334,79.876,9.332c15.688,0.002,29.875,6.352,40.157,16.63
			c10.275,10.281,16.629,24.469,16.631,40.156c-0.002,15.68-6.355,29.87-16.631,40.151c-10.281,10.277-24.469,16.631-40.157,16.631
			C64.193,122.901,50.003,116.547,39.725,106.27z"/>
		<path fill="#FFFFFF" d="M136.664,66.119c-0.002-15.688-6.355-29.875-16.631-40.156C109.752,15.684,95.564,9.334,79.876,9.332
			c-15.684,0.002-29.873,6.352-40.151,16.63C29.449,36.244,23.092,50.431,23.092,66.119c0,15.68,6.356,29.87,16.633,40.151
			c10.278,10.277,24.468,16.631,40.151,16.631c15.688,0,29.875-6.354,40.157-16.631C130.309,95.989,136.662,81.799,136.664,66.119z
			 M79.876,121.584c-30.632,0-55.468-24.834-55.468-55.467c0-30.635,24.836-55.466,55.468-55.47
			c30.637,0.004,55.467,24.835,55.473,55.47C135.344,96.75,110.514,121.584,79.876,121.584z"/>
		<path fill="#BE1E2D" d="M135.35,66.117c-0.006-30.635-24.836-55.466-55.473-55.47c-30.632,0.004-55.468,24.835-55.468,55.47
			c0,30.633,24.836,55.467,55.468,55.467C110.514,121.584,135.344,96.75,135.35,66.117z M41.493,104.502
			c-9.824-9.828-15.901-23.395-15.901-38.385c0-14.994,6.077-28.561,15.901-38.387c9.826-9.822,23.395-15.898,38.384-15.898
			c14.995,0,28.563,6.077,38.387,15.898c9.824,9.826,15.898,23.393,15.898,38.387c0,14.991-6.074,28.557-15.898,38.385
			c-9.824,9.824-23.393,15.898-38.387,15.898C64.887,120.401,51.319,114.326,41.493,104.502z"/>
		<path fill="#BE1E2D" d="M129.914,66.117c0-27.636-22.402-50.036-50.038-50.036c-27.631,0-50.033,22.4-50.033,50.036
			c0,27.633,22.402,50.036,50.033,50.038C107.512,116.153,129.914,93.75,129.914,66.117z M45.25,100.744
			c-8.862-8.865-14.342-21.104-14.342-34.627c0-13.526,5.479-25.766,14.342-34.628c8.863-8.861,21.102-14.342,34.626-14.342
			c13.524,0,25.768,5.481,34.627,14.342c8.863,8.862,14.342,21.102,14.342,34.628c0,13.524-5.479,25.762-14.342,34.627
			c-8.859,8.863-21.104,14.342-34.627,14.342C66.352,115.086,54.114,109.608,45.25,100.744z"/>
	</g>
	<g>
		<path d="M79.998,97.811c-17.476,0-31.693-14.219-31.693-31.692c0-17.479,14.218-31.698,31.693-31.698
			c17.475,0,31.698,14.219,31.698,31.698C111.695,83.592,97.473,97.811,79.998,97.811L79.998,97.811z M79.998,39.527
			c-14.657,0-26.587,11.93-26.587,26.592c0,14.655,11.93,26.581,26.587,26.581c14.661,0,26.583-11.926,26.583-26.581
			C106.58,51.457,94.658,39.527,79.998,39.527L79.998,39.527z M79.998,39.527"/>
		<path d="M72.698,59.137c0.374-0.966,0.898-1.801,1.572-2.507c0.672-0.705,1.49-1.256,2.439-1.648
			c0.95-0.403,2.016-0.596,3.194-0.596c1.518,0,2.786,0.204,3.803,0.627c1.018,0.417,1.832,0.935,2.455,1.555
			c0.623,0.625,1.066,1.29,1.334,2.007c0.266,0.717,0.398,1.389,0.398,2.007c0,1.021-0.133,1.873-0.398,2.533
			c-0.268,0.665-0.602,1.232-0.996,1.702c-0.398,0.471-0.832,0.872-1.314,1.203c-0.48,0.336-0.938,0.664-1.363,0.994
			c-0.428,0.334-0.811,0.711-1.141,1.141c-0.332,0.428-0.543,0.961-0.627,1.605v1.219h-4.333v-1.447
			c0.067-0.916,0.237-1.688,0.528-2.305c0.287-0.622,0.627-1.151,1.01-1.594c0.388-0.435,0.796-0.815,1.221-1.14
			c0.431-0.322,0.824-0.639,1.193-0.957c0.357-0.326,0.652-0.676,0.877-1.062c0.229-0.381,0.328-0.871,0.305-1.444
			c0-0.988-0.236-1.711-0.721-2.184c-0.48-0.471-1.152-0.706-2.007-0.706c-0.578,0-1.075,0.112-1.489,0.336
			c-0.424,0.227-0.762,0.528-1.028,0.898c-0.273,0.379-0.466,0.819-0.596,1.317c-0.125,0.508-0.192,1.046-0.192,1.623h-4.718
			C72.126,61.16,72.32,60.098,72.698,59.137L72.698,59.137z M82.311,72.906v4.939h-5.042v-4.939H82.311z M82.311,72.906"/>
	</g>
</g>
</svg>
