<?xml version="1.0" encoding="utf-8"?>
<!-- Generator: Adobe Illustrator 15.1.0, SVG Export Plug-In . SVG Version: 6.00 Build 0)  -->
<!DOCTYPE svg PUBLIC "-//W3C//DTD SVG 1.1//EN" "http://www.w3.org/Graphics/SVG/1.1/DTD/svg11.dtd">
<svg version="1.1" id="Layer_1" xmlns="http://www.w3.org/2000/svg" xmlns:xlink="http://www.w3.org/1999/xlink" x="0px" y="0px"
	 width="160px" height="132.23px" viewBox="0 0 160 132.23" enable-background="new 0 0 160 132.23" xml:space="preserve">
<g>
	<g>
		<path fill="#BE1E2D" d="M160.001,81.592l-13.9-15.674l12.718-15.086h-21.787c-6.735-25.259-29.77-43.868-57.152-43.868
			c-27.382,0-50.417,18.609-57.154,43.868H1.182l12.718,15.086l-13.9,15.674h22.779c6.803,25.163,29.785,43.675,57.101,43.675
			c27.311,0,50.299-18.512,57.101-43.675H160.001z M39.725,106.271C29.448,95.99,23.092,81.803,23.092,66.119
			c0-15.686,6.356-29.875,16.633-40.158C50.006,15.682,64.193,9.332,79.879,9.329c15.686,0.003,29.873,6.353,40.154,16.632
			c10.276,10.283,16.629,24.473,16.633,40.158c-0.004,15.684-6.356,29.871-16.633,40.151
			c-10.281,10.276-24.469,16.629-40.154,16.631C64.193,122.9,50.006,116.547,39.725,106.271z"/>
		<path fill="#FFFFFF" d="M136.666,66.119c-0.004-15.686-6.356-29.875-16.633-40.158C109.752,15.682,95.564,9.332,79.879,9.329
			c-15.686,0.003-29.873,6.353-40.154,16.632C29.448,36.244,23.092,50.434,23.092,66.119c0,15.684,6.356,29.871,16.633,40.151
			c10.281,10.276,24.469,16.629,40.154,16.631c15.686-0.002,29.873-6.354,40.154-16.631C130.31,95.99,136.662,81.803,136.666,66.119
			z M79.879,121.585c-30.635-0.002-55.47-24.836-55.47-55.471c0-30.632,24.835-55.466,55.47-55.468
			c30.635,0.002,55.468,24.836,55.471,55.468C135.347,96.749,110.514,121.583,79.879,121.585z"/>
		<path fill="#BE1E2D" d="M135.35,66.115c-0.003-30.632-24.836-55.466-55.471-55.468c-30.635,0.002-55.47,24.836-55.47,55.468
			c0,30.635,24.835,55.469,55.47,55.471C110.514,121.583,135.347,96.749,135.35,66.115z M41.492,104.504
			c-9.821-9.826-15.9-23.396-15.9-38.39c0-14.989,6.079-28.558,15.9-38.382c9.826-9.826,23.396-15.903,38.387-15.903
			s28.561,6.077,38.385,15.903c9.824,9.824,15.898,23.393,15.898,38.382c0,14.994-6.074,28.563-15.898,38.39
			c-9.824,9.821-23.394,15.898-38.385,15.898S51.318,114.325,41.492,104.504z"/>
		<path fill="#BE1E2D" d="M129.915,66.115c0-27.631-22.402-50.034-50.036-50.036C52.246,16.08,29.843,38.484,29.843,66.115
			c0,27.638,22.403,50.039,50.036,50.039C107.513,116.154,129.915,93.752,129.915,66.115z M45.253,100.743
			c-8.865-8.863-14.344-21.102-14.344-34.629c0-13.521,5.479-25.761,14.344-34.626c8.861-8.863,21.1-14.342,34.626-14.342
			c13.524,0,25.766,5.479,34.626,14.342c8.865,8.865,14.344,21.104,14.344,34.626c0,13.527-5.479,25.766-14.344,34.629
			c-8.86,8.863-21.102,14.344-34.626,14.344C66.353,115.087,54.114,109.607,45.253,100.743z"/>
	</g>
	<g>
		<path d="M80.002,34.421c-17.507,0-31.698,14.189-31.698,31.693c0,17.505,14.191,31.699,31.698,31.699
			c17.503,0,31.694-14.194,31.694-31.699C111.696,48.611,97.505,34.421,80.002,34.421L80.002,34.421z M81.982,93.748v-3.861h-3.965
			v3.861c-13.708-0.975-24.674-11.943-25.65-25.651h3.861v-3.962h-3.861c0.977-13.708,11.942-24.677,25.65-25.651v3.861h3.965
			v-3.861c13.708,0.975,24.677,11.943,25.65,25.651h-3.861v3.962h3.861C106.659,81.805,95.69,92.774,81.982,93.748L81.982,93.748z
			 M94.581,57.698c0.271,0.471,0.11,1.079-0.36,1.353l-10.467,6.041c0.092,0.336,0.208,0.661,0.208,1.023
			c0,2.191-1.773,3.963-3.96,3.963c-2.19,0-3.964-1.771-3.964-3.963L65.286,59.91c-0.949-0.551-1.272-1.761-0.726-2.71
			c0.547-0.95,1.759-1.277,2.706-0.726l10.813,6.244c0.578-0.324,1.205-0.564,1.922-0.564c1.106,0,2.102,0.457,2.82,1.191
			l10.404-6.012C93.692,57.057,94.299,57.22,94.581,57.698L94.581,57.698z M94.581,57.698"/>
	</g>
</g>
</svg>
