<?xml version="1.0" encoding="utf-8"?>
<!-- Generator: Adobe Illustrator 15.1.0, SVG Export Plug-In . SVG Version: 6.00 Build 0)  -->
<!DOCTYPE svg PUBLIC "-//W3C//DTD SVG 1.1//EN" "http://www.w3.org/Graphics/SVG/1.1/DTD/svg11.dtd">
<svg version="1.1" id="Layer_1" xmlns="http://www.w3.org/2000/svg" xmlns:xlink="http://www.w3.org/1999/xlink" x="0px" y="0px"
	 width="145px" height="119.834px" viewBox="0 0 145 119.834" enable-background="new 0 0 145 119.834" xml:space="preserve">
<g>
	<g>
		<path fill="#BE1E2D" d="M36.34,33.722c2.133-1.722,4.791-2.657,6.587-2.657c2.321,0,3.667,1.646,3.743,3.667
			c2.582-2.544,5.801-3.667,7.709-3.667c2.433,0,3.706,1.759,3.706,3.893c0,1.311-0.487,2.957-1.385,5.202l-7.822,19.388
			c-0.786,2.171-0.749,3.518,1.422,4.641l-1.834,4.528c-5.838-1.946-6.7-6.025-5.127-10.255l6.476-16.057
			c0.935-2.245,1.721-4.153,1.721-4.939c0-0.524-0.337-0.861-0.973-0.861c-1.198,0-3.406,1.273-5.314,3.406L37.2,60.108h-5.95
			l7.111-17.703c0.936-2.245,1.722-4.153,1.722-4.939c0-0.524-0.337-0.861-1.011-0.861c-1.16,0-3.219,1.197-5.128,3.144
			l-8.159,20.36h-5.951l9.506-23.654c-5.763,1.91-11.115,3.069-11.115,6.214c0,1.796,1.684,2.246,2.619,2.246v4.864
			c-4.565,0-7.672-2.844-7.635-6.886c0-7.748,9.768-8.946,18.414-12.164L36.34,33.722z"/>
		<path fill="#BE1E2D" d="M70.361,50.713c-2.881,5.053-6.624,9.395-10.928,9.395c-3.406,0-5.802-2.694-3.069-9.469l4.229-10.442
			h5.951L61.941,51.65c-1.722,4.267-1.048,4.79-0.412,4.79c1.497,0,4.08-2.619,6.736-7.223
			C69.052,49.292,70.063,50.003,70.361,50.713z M62.202,35.332c0-1.834,1.459-3.257,3.294-3.257c1.759,0,3.293,1.423,3.293,3.257
			c0,1.759-1.534,3.293-3.293,3.293C63.662,38.625,62.202,37.09,62.202,35.332z"/>
		<path fill="#BE1E2D" d="M68.267,49.217c0.823-1.46,1.871-3.594,2.956-5.989c-0.673-0.71-1.16-1.347-1.16-2.283
			c0-1.908,1.983-3.93,3.518-4.416l2.432,1.349l-1.197,2.993c1.535,1.348,6.139,3.443,6.139,6.25c0,0.45-0.113,1.011-0.45,1.872
			l-1.048,2.657c-1.722,4.192-0.822,4.79-0.299,4.79c1.048,0,2.845-2.32,5.727-7.223c0.785,0.074,1.796,0.786,2.096,1.496
			c-2.882,4.979-5.876,9.395-9.993,9.395c-2.919,0-6.025-2.171-3.331-8.795l1.198-3.032c0.3-0.748,0.337-1.122,0.337-1.31
			c0-0.748-0.824-1.423-1.835-2.283c-1.009,2.358-1.946,4.192-2.993,6.025C69.576,50.639,68.565,49.928,68.267,49.217z"/>
		<path fill="#BE1E2D" d="M107.901,50.713c-2.246,3.894-7.074,9.395-11.827,9.395c-3.48,0-6.063-2.956-5.727-7.148
			c0.15-1.871,0.712-2.283,1.572-2.283c1.085,0,3.106-0.037,4.38-3.368c0.149-0.411,0.448-1.235,0.448-1.871
			c0-0.637-0.299-0.936-0.898-0.936c-1.011,0-2.545,0.823-4.229,2.657l-5.052,12.463h-5.951l10.854-26.835h5.951l-3.78,9.394
			c0,0,2.844-2.47,6.101-2.47c2.395,0,3.631,1.348,3.631,3.144c0,1.946-1.46,4.94-1.685,5.39c-1.311,2.582-3.481,4.304-5.802,4.491
			c-0.074,1.535,0,3.855,1.946,3.705c2.097-0.112,5.464-2.844,7.973-7.223C106.591,49.292,107.602,50.003,107.901,50.713z"/>
		<path fill="#BE1E2D" d="M129.422,50.713c-2.021,3.481-5.427,5.989-9.244,5.689c-1.871,2.171-4.491,3.705-7.821,3.705
			c-4.643,0-7.187-2.845-7.187-7.111c0-5.015,3.667-13.286,11.602-13.286c4.529,0,7.037,2.62,7.037,6.961
			c0,2.059-0.562,4.566-1.685,6.85c1.834-0.3,3.668-1.684,5.201-4.304C128.112,49.292,129.123,50.003,129.422,50.713z
			 M114.976,54.382c-0.524-0.562-0.824-1.273-0.824-2.096c0-1.686,1.348-3.069,3.182-2.995c0.524-1.459,0.823-2.807,0.823-3.743
			c0-1.384-0.674-1.945-1.459-1.945c-2.957,0-5.839,7.859-5.839,10.63c0,1.197,0.562,1.983,1.46,1.983
			C113.216,56.216,114.151,55.467,114.976,54.382z"/>
	</g>
	<g>
		<path fill="#070707" d="M72.797,20.085c-0.394,0-1.158-0.045-1.652-0.123l-1.808,4.459c-1.068,2.696-2.651,3.088-3.673,3.088
			c-1.853,0-2.74-1.257-2.74-2.526c0-1.358,1.033-2.583,2.786-2.448v1.481c-1.057-0.077-1.259,0.573-1.259,0.978
			c0,0.641,0.528,1.034,1.101,1.034c1.056,0,1.708-0.944,2.359-2.517l1.561-3.863c-1.314-0.292-2.606-0.596-3.381-0.596
			c-0.786,0-1.123,0.326-1.123,0.741c0,0.438,0.381,0.652,0.729,0.652c0.438,0,0.775-0.337,0.775-0.337l0.718,1.089
			c0,0-0.605,0.618-1.606,0.618c-1.056,0-2.066-0.696-2.066-2.022c0-1.123,0.741-2.246,2.673-2.246c1.832,0,4.662,1.033,6.548,1.033
			c1.033,0,1.358-0.326,1.358-0.326l0.933,0.518C75.031,18.772,74.84,20.085,72.797,20.085z"/>
		<path fill="#070707" d="M78.364,24.32c-0.909,1.584-1.976,2.819-3.335,2.819c-1.169,0-1.617-0.921-0.832-2.886l0.169-0.416
			c0.213-0.562,0.394-0.966,0.394-1.134c0-0.157-0.135-0.248-0.314-0.248c-0.27,0-0.787,0.259-1.258,0.798l-1.517,3.74h-1.786
			l3.256-8.054h1.786l-1.134,2.819c0,0,0.843-0.741,1.841-0.741c0.708,0,1.079,0.382,1.079,0.978c0,0.303-0.102,0.685-0.337,1.27
			l-0.551,1.337c-0.516,1.291-0.303,1.438-0.111,1.438c0.448,0,1.224-0.787,2.021-2.168C77.972,23.894,78.274,24.107,78.364,24.32z"
			/>
		<path fill="#070707" d="M84.102,24.32c-0.764,1.349-2.134,2.819-4.29,2.819c-1.562,0-2.314-0.764-2.314-1.988
			c0-1.493,1.135-4.133,3.538-4.133c1.27,0,2.348,0.831,1.629,2.448c-0.471,1.022-1.37,1.674-3.448,1.404
			c0,0-0.325,1.169,1.102,1.169c1.145,0,2.358-0.753,3.155-2.168C83.709,23.894,84.012,24.107,84.102,24.32z M79.52,23.905
			c1.033,0.18,1.37-0.292,1.595-0.82c0.146-0.337,0.214-0.64-0.169-0.64C80.114,22.445,79.52,23.905,79.52,23.905z"/>
	</g>
	<polygon fill="#070707" points="141.753,102.288 127.512,100.084 130.759,79.115 145,81.321 136.651,90.719 	"/>
	<polygon fill="#070707" points="3.091,102.25 17.345,100.148 14.253,79.155 0,81.253 8.276,90.718 	"/>
	<g>
		<path fill="#070707" d="M125.641,95.547c-35.232-5.58-71.123-5.58-106.355,0c-1.106-6.985-2.213-13.971-3.319-20.957
			c37.431-5.928,75.562-5.928,112.994,0C127.854,81.577,126.747,88.562,125.641,95.547z"/>
	</g>
	<g>
		<g>
			<path fill="#FFFFFF" d="M26.305,80.436c0.183,1.199,0.365,2.397,0.547,3.596c1.684-0.256,3.369-0.498,5.055-0.727
				c0.072,0.538,0.145,1.075,0.218,1.612c-1.678,0.228-3.354,0.468-5.028,0.723c0.253,1.663,0.506,3.326,0.759,4.988
				c-0.6,0.092-1.199,0.185-1.798,0.279c-0.623-3.93-1.245-7.859-1.867-11.789c2.627-0.416,5.259-0.799,7.894-1.147
				c0.071,0.538,0.142,1.075,0.213,1.613C30.298,79.849,28.301,80.133,26.305,80.436z"/>
			<path fill="#FFFFFF" d="M42.403,88.778c-1.008-1.582-2.03-3.16-3.066-4.731c-0.766,0.085-1.531,0.173-2.296,0.264
				c0.197,1.665,0.395,3.33,0.593,4.995c-0.604,0.071-1.207,0.145-1.81,0.22c-0.493-3.948-0.985-7.896-1.479-11.844
				c1.601-0.2,3.202-0.388,4.805-0.563c2.353-0.256,3.993,1.058,4.184,3.073c0.163,1.705-0.792,2.89-2.116,3.397
				c1.116,1.654,2.215,3.313,3.299,4.979C43.813,88.635,43.108,88.706,42.403,88.778z M39.187,78.751
				c-0.923,0.101-1.846,0.206-2.769,0.315c0.147,1.237,0.294,2.476,0.441,3.713c0.911-0.108,1.823-0.213,2.735-0.313
				c1.232-0.135,2-0.902,1.881-2.07C41.357,79.23,40.436,78.615,39.187,78.751z"/>
			<path fill="#FFFFFF" d="M46.795,88.36c-0.348-3.964-0.695-7.927-1.042-11.891c0.629-0.056,1.258-0.108,1.887-0.159
				c0.323,3.965,0.646,7.931,0.97,11.896C48.005,88.256,47.4,88.307,46.795,88.36z"/>
			<path fill="#FFFFFF" d="M50.975,88.023c-0.038-0.519-0.076-1.037-0.114-1.556c1.636-3.045,3.328-6.076,5.073-9.094
				c-1.824,0.101-3.648,0.218-5.471,0.35c-0.039-0.541-0.079-1.081-0.118-1.622c2.572-0.188,5.146-0.343,7.72-0.466
				c0.024,0.491,0.047,0.983,0.071,1.475c-1.779,3.033-3.502,6.082-5.17,9.144c1.864-0.124,3.728-0.23,5.593-0.319
				c0.026,0.541,0.052,1.083,0.078,1.624C56.081,87.68,53.527,87.835,50.975,88.023z"/>
			<path fill="#FFFFFF" d="M61.008,87.454c-0.159-3.976-0.318-7.951-0.477-11.927c2.65-0.106,5.302-0.178,7.954-0.217
				c0.008,0.543,0.016,1.085,0.023,1.627c-2.012,0.029-4.024,0.078-6.036,0.146c0.04,1.161,0.079,2.322,0.118,3.483
				c1.696-0.058,3.393-0.102,5.089-0.131c0.009,0.537,0.019,1.075,0.028,1.612c-1.688,0.029-3.375,0.072-5.063,0.13
				c0.041,1.194,0.081,2.389,0.122,3.583c1.955-0.065,3.911-0.113,5.867-0.142c0.008,0.542,0.016,1.084,0.023,1.626
				C66.107,87.283,63.558,87.352,61.008,87.454z"/>
			<path fill="#FFFFFF" d="M77.76,87.252c-0.814-1.689-1.642-3.377-2.483-5.06c-0.771-0.006-1.541-0.009-2.312-0.009
				c0,1.677,0,3.354,0,5.03c-0.605,0-1.21,0.002-1.815,0.006c-0.024-3.979-0.049-7.958-0.073-11.937
				c1.609-0.01,3.218-0.007,4.827,0.008c2.366,0.023,3.838,1.521,3.79,3.545c-0.039,1.713-1.127,2.775-2.5,3.125
				c0.911,1.773,1.807,3.551,2.687,5.332C79.173,87.278,78.466,87.264,77.76,87.252z M75.749,76.917
				c-0.928-0.009-1.856-0.013-2.785-0.013c0,1.246,0,2.492,0,3.738c0.918,0,1.835,0.004,2.752,0.013
				c1.239,0.011,2.092-0.661,2.111-1.835C77.847,77.649,77.005,76.928,75.749,76.917z"/>
			<path fill="#FFFFFF" d="M85.339,87.57c-1.796-0.074-3.072-0.531-4.192-1.721c0.417-0.385,0.835-0.77,1.255-1.153
				c0.854,0.898,1.807,1.201,3.04,1.252c1.569,0.065,2.516-0.557,2.574-1.715c0.025-0.519-0.106-0.962-0.416-1.262
				c-0.294-0.3-0.597-0.43-1.311-0.563c-0.475-0.088-0.949-0.176-1.425-0.262c-0.987-0.173-1.764-0.532-2.284-1.037
				c-0.581-0.57-0.855-1.331-0.828-2.301c0.055-2.079,1.672-3.466,4.265-3.358c1.643,0.069,2.779,0.529,3.789,1.543
				c-0.421,0.357-0.84,0.715-1.258,1.074c-0.729-0.743-1.607-1.001-2.649-1.045c-1.462-0.061-2.291,0.72-2.325,1.771
				c-0.016,0.438,0.107,0.825,0.428,1.123c0.302,0.277,0.79,0.499,1.354,0.606c0.463,0.086,0.925,0.173,1.387,0.261
				c1.122,0.218,1.747,0.518,2.235,0.996c0.64,0.604,0.916,1.478,0.858,2.498C89.71,86.472,87.84,87.672,85.339,87.57z"/>
			<path fill="#FFFFFF" d="M96.926,77.83c-0.266,3.427-0.53,6.853-0.796,10.279c-0.604-0.047-1.207-0.092-1.812-0.135
				c0.244-3.428,0.488-6.855,0.733-10.284c-1.136-0.08-2.271-0.155-3.406-0.224c0.032-0.541,0.064-1.083,0.098-1.624
				c2.911,0.176,5.821,0.392,8.729,0.649c-0.048,0.54-0.096,1.08-0.144,1.62C99.194,78.011,98.061,77.917,96.926,77.83z"/>
			<path fill="#FFFFFF" d="M106.385,89.08c-0.47-0.053-0.939-0.104-1.409-0.154c-0.882-4.097-1.816-8.189-2.804-12.279
				c0.651,0.062,1.302,0.125,1.952,0.189c0.663,2.977,1.301,5.953,1.911,8.933c1.24-2.776,2.507-5.545,3.8-8.306
				c0.661,0.078,1.322,0.159,1.983,0.242C109.955,81.481,108.145,85.273,106.385,89.08z"/>
			<path fill="#FFFFFF" d="M118.964,89.572c-0.945,0.685-2.063,0.974-3.33,0.791c-1.269-0.182-2.239-0.771-2.956-1.694
				c-1.021-1.319-0.838-2.629-0.543-4.906s0.441-3.597,1.807-4.599c0.958-0.701,2.098-1.004,3.418-0.814
				c1.32,0.19,2.348,0.804,3.068,1.746c1.028,1.347,0.781,2.651,0.423,4.92C120.492,87.283,120.314,88.593,118.964,89.572z
				 M118.85,80.955c-0.362-0.512-0.996-0.891-1.722-0.995c-0.727-0.104-1.44,0.081-1.933,0.47c-0.688,0.552-0.901,1.199-1.223,3.576
				c-0.32,2.375-0.287,3.055,0.212,3.77c0.359,0.502,0.975,0.878,1.68,0.979s1.401-0.086,1.888-0.468
				c0.681-0.544,0.903-1.188,1.264-3.557C119.377,82.359,119.355,81.677,118.85,80.955z"/>
		</g>
	</g>
</g>
</svg>
